HIERARCHY
ROOT Hips
{
	OFFSET 0.000000 0.000000 0.000000
	CHANNELS 6 Xposition Yposition Zposition Yrotation Xrotation Zrotation
	JOINT Chest
	{
		OFFSET 0.000000 -0.009282 11.569106
		CHANNELS 6 Xposition Yposition Zposition Yrotation Xrotation Zrotation
		JOINT Chest2
		{
			OFFSET -0.000000 0.016863 9.269641
			CHANNELS 6 Xposition Yposition Zposition Yrotation Xrotation Zrotation
			JOINT Chest3
			{
				OFFSET -0.000000 0.000000 8.374491
				CHANNELS 6 Xposition Yposition Zposition Yrotation Xrotation Zrotation
				JOINT Chest4
				{
					OFFSET -0.000000 0.000000 8.374493
					CHANNELS 6 Xposition Yposition Zposition Yrotation Xrotation Zrotation
					JOINT Neck
					{
						OFFSET -0.000000 0.000001 12.152554
						CHANNELS 6 Xposition Yposition Zposition Yrotation Xrotation Zrotation
						JOINT Head
						{
							OFFSET -0.000000 0.040100 7.802319
							CHANNELS 6 Xposition Yposition Zposition Yrotation Xrotation Zrotation
							End Site
							{
								OFFSET -0.000000 0.020946 14.853096
							}
						}
					}
					JOINT RightCollar
					{
						OFFSET 2.894404 0.000001 6.791374
						CHANNELS 6 Xposition Yposition Zposition Yrotation Xrotation Zrotation
						JOINT RightShoulder
						{
							OFFSET 13.574684 0.000001 0.000000
							CHANNELS 6 Xposition Yposition Zposition Yrotation Xrotation Zrotation
							JOINT RightElbow
							{
								OFFSET 23.923903 0.000002 0.000000
								CHANNELS 6 Xposition Yposition Zposition Yrotation Xrotation Zrotation
								JOINT RightWrist
								{
									OFFSET 19.846718 0.012767 0.000000
									CHANNELS 6 Xposition Yposition Zposition Yrotation Xrotation Zrotation
									End Site
									{
										OFFSET 14.973145 0.000001 0.000000
									}
								}
							}
						}
					}
					JOINT LeftCollar
					{
						OFFSET -2.894404 0.000000 6.791374
						CHANNELS 6 Xposition Yposition Zposition Yrotation Xrotation Zrotation
						JOINT LeftShoulder
						{
							OFFSET -13.574684 -0.000001 0.000000
							CHANNELS 6 Xposition Yposition Zposition Yrotation Xrotation Zrotation
							JOINT LeftElbow
							{
								OFFSET -23.923903 -0.000002 0.000000
								CHANNELS 6 Xposition Yposition Zposition Yrotation Xrotation Zrotation
								JOINT LeftWrist
								{
									OFFSET -19.846718 0.012763 0.000000
									CHANNELS 6 Xposition Yposition Zposition Yrotation Xrotation Zrotation
									End Site
									{
										OFFSET -14.973145 -0.000001 0.000000
									}
								}
							}
						}
					}
				}
			}
		}
	}
	JOINT RightHip
	{
		OFFSET 9.469263 0.004643 0.045487
		CHANNELS 6 Xposition Yposition Zposition Yrotation Xrotation Zrotation
		JOINT RightKnee
		{
			OFFSET 0.000000 0.002666 -40.478676
			CHANNELS 6 Xposition Yposition Zposition Yrotation Xrotation Zrotation
			JOINT RightAnkle
			{
				OFFSET 0.000000 0.049110 -35.224068
				CHANNELS 6 Xposition Yposition Zposition Yrotation Xrotation Zrotation
				JOINT RightToe
				{
					OFFSET -0.000001 12.539530 -6.151390
					CHANNELS 6 Xposition Yposition Zposition Yrotation Xrotation Zrotation
					End Site
					{
						OFFSET -0.000001 5.044996 -1.291870
					}
				}
			}
		}
	}
	JOINT LeftHip
	{
		OFFSET -9.469263 0.004641 0.045487
		CHANNELS 6 Xposition Yposition Zposition Yrotation Xrotation Zrotation
		JOINT LeftKnee
		{
			OFFSET 0.000000 0.002666 -40.478676
			CHANNELS 6 Xposition Yposition Zposition Yrotation Xrotation Zrotation
			JOINT LeftAnkle
			{
				OFFSET 0.000000 0.049110 -35.224068
				CHANNELS 6 Xposition Yposition Zposition Yrotation Xrotation Zrotation
				JOINT LeftToe
				{
					OFFSET -0.000001 12.539530 -6.151390
					CHANNELS 6 Xposition Yposition Zposition Yrotation Xrotation Zrotation
					End Site
					{
						OFFSET -0.000001 5.044996 -1.291870
					}
				}
			}
		}
	}
}
MOTION
Frames: 8
Frame Time: 0.016667
6.446910 3.332833 82.999474 -10.963047 -2.495592 -101.974185 0.000000 -0.009279 11.569104 -0.279877 -3.176089 1.696622 0.000000 0.016864 9.269639 -0.113637 -1.411389 0.749821 -0.000000 -0.000000 8.374496 -0.113637 -1.411387 0.749820 -0.000000 0.000000 8.374490 -0.083492 -1.058682 0.562074 0.000001 0.000002 12.152543 4.557112 -18.765084 -10.849052 0.000002 0.040104 7.802310 4.869027 1.285035 -18.417889 2.894404 0.000000 6.791366 5.971370 -0.013137 -11.621318 13.574687 0.000000 0.000004 63.523546 11.541577 39.574977 23.923895 0.000007 -0.000005 47.151955 -39.306383 65.165926 19.846714 0.012763 -0.000006 -1.766322 15.985189 13.962671 -2.894405 -0.000000 6.791369 -7.835607 0.916231 -7.441074 -13.574682 -0.000001 0.000009 -53.995869 -4.951667 -34.597220 -23.923906 -0.000006 0.000006 -28.780245 -17.946208 -52.919630 -19.846714 0.012761 0.000006 -12.804061 -7.180495 44.733077 9.469263 0.004646 0.045488 1.630908 -15.414231 -12.594362 0.000093 0.002661 -40.478535 -3.172196 2.984857 -2.164483 0.000054 0.049108 -35.223965 4.019667 2.183223 -1.029830 -0.000001 12.539525 -6.151391 0.002068 -0.015421 -0.002339 -9.469263 0.004644 0.045483 0.892168 -14.909220 -23.028674 -0.000860 0.002517 -40.478489 -1.139593 4.645369 18.665539 -0.000950 0.048934 -35.224018 0.986893 0.793670 20.851809 0.000000 12.539531 -6.151400 0.003833 -0.011807 0.002722 
6.436942 3.335437 82.999184 -10.975171 -2.484138 -101.904011 0.000000 -0.009283 11.569118 -0.292774 -3.199853 1.742512 -0.000000 0.016863 9.269634 -0.119539 -1.421083 0.767700 0.000001 0.000000 8.374497 -0.119539 -1.421084 0.767701 -0.000000 0.000000 8.374508 -0.087865 -1.065964 0.575467 -0.000001 0.000002 12.152558 4.555645 -18.670249 -10.890054 0.000001 0.040099 7.802313 4.843028 1.457693 -18.496822 2.894404 0.000001 6.791378 5.942615 0.045125 -11.619209 13.574687 0.000002 -0.000005 63.263944 11.082405 39.683819 23.923906 0.000011 0.000003 45.026799 -38.709831 64.934697 19.846716 0.012769 -0.000000 -3.310683 16.859584 18.704299 -2.894405 0.000001 6.791383 -7.799272 0.938297 -7.471694 -13.574688 -0.000002 -0.000003 -54.001508 -4.821958 -34.649389 -23.923914 -0.000008 0.000002 -29.252870 -18.278923 -53.838037 -19.846722 0.012768 0.000002 -15.901054 -6.262051 47.723146 9.469263 0.004641 0.045487 1.634744 -15.422415 -12.621922 0.000093 0.002660 -40.478527 -3.166753 2.984333 -2.192442 0.000054 0.049105 -35.223976 4.011759 2.180217 -1.044830 -0.000001 12.539527 -6.151399 0.002812 -0.012054 0.000822 -9.469262 0.004641 0.045492 0.884671 -14.899479 -23.057921 -0.000859 0.002517 -40.478485 -1.132358 4.631826 18.643754 -0.000943 0.048937 -35.224026 0.980102 0.786398 20.715969 -0.000002 12.539533 -6.151390 0.005902 -0.014398 0.002849 
6.427487 3.342354 82.999466 -10.990375 -2.472826 -101.829651 0.000000 -0.009286 11.569099 -0.302198 -3.221223 1.777467 0.000000 0.016865 9.269625 -0.122020 -1.430170 0.781113 0.000000 0.000000 8.374497 -0.122020 -1.430171 0.781113 0.000000 0.000000 8.374496 -0.089682 -1.072785 0.585521 0.000000 0.000003 12.152557 4.548013 -18.586927 -10.926339 0.000000 0.040098 7.802314 4.808433 1.608631 -18.568844 2.894404 0.000001 6.791373 5.905029 0.081521 -11.611202 13.574683 0.000001 0.000002 62.997444 10.625426 39.826099 23.923910 0.000010 -0.000008 43.015616 -38.079230 64.527297 19.846724 0.012765 -0.000000 -4.935579 18.048498 23.249781 -2.894403 0.000002 6.791383 -7.769064 0.937368 -7.492881 -13.574681 -0.000001 -0.000005 -54.010260 -4.711461 -34.708091 -23.923910 -0.000007 -0.000007 -29.580190 -18.624145 -54.823664 -19.846710 0.012773 0.000001 -18.684918 -4.993988 50.186003 9.469262 0.004639 0.045484 1.632323 -15.432515 -12.649090 0.000096 0.002660 -40.478535 -3.154572 2.979815 -2.217368 0.000056 0.049105 -35.223984 4.002695 2.178539 -1.076183 -0.000001 12.539528 -6.151390 0.003971 -0.008605 0.003826 -9.469262 0.004638 0.045486 0.876599 -14.894759 -23.063204 -0.000855 0.002517 -40.478485 -1.123817 4.617598 18.607291 -0.000947 0.048936 -35.224022 0.977566 0.784412 20.752056 0.000001 12.539536 -6.151396 0.004174 -0.020098 -0.002009 
6.419089 3.348134 82.999924 -10.998515 -2.465018 -101.758296 -0.000000 -0.009283 11.569114 -0.308054 -3.249634 1.809219 0.000000 0.016863 9.269641 -0.124559 -1.441539 0.792159 0.000000 -0.000001 8.374485 -0.124560 -1.441539 0.792162 0.000000 0.000000 8.374487 -0.091546 -1.081319 0.593795 0.000001 0.000003 12.152560 4.540269 -18.504297 -10.958730 0.000001 0.040098 7.802333 4.774847 1.758471 -18.633825 2.894404 0.000002 6.791379 5.875481 0.181587 -11.597769 13.574682 0.000000 0.000011 62.696676 10.170864 39.946467 23.923906 0.000014 -0.000005 41.245825 -37.472105 63.841368 19.846727 0.012765 0.000001 -6.703044 19.425114 27.591536 -2.894404 0.000001 6.791381 -7.735742 0.957884 -7.502364 -13.574683 -0.000003 -0.000006 -54.007744 -4.602034 -34.787673 -23.923901 0.000005 0.000005 -29.951783 -18.955146 -55.727749 -19.846714 0.012771 0.000000 -20.940202 -3.409046 51.963167 9.469263 0.004643 0.045491 1.630953 -15.434844 -12.665771 0.000096 0.002661 -40.478535 -3.140504 2.970599 -2.236634 0.000058 0.049104 -35.223972 3.995351 2.178894 -1.103651 -0.000000 12.539527 -6.151392 0.003569 -0.004785 0.004189 -9.469261 0.004641 0.045496 0.874123 -14.884890 -23.046670 -0.000855 0.002518 -40.478489 -1.122216 4.606166 18.559921 -0.000941 0.048940 -35.224022 0.972518 0.781777 20.634425 -0.000000 12.539536 -6.151392 0.007579 -0.024133 0.000570 
6.411112 3.357458 83.000526 -11.005882 -2.453543 -101.678164 0.000000 -0.009283 11.569094 -0.324673 -3.280727 1.852271 0.000000 0.016865 9.269637 -0.130971 -1.454708 0.809163 -0.000000 -0.000001 8.374474 -0.130971 -1.454709 0.809165 -0.000000 0.000001 8.374500 -0.096297 -1.091208 0.606529 -0.000000 0.000003 12.152535 4.551338 -18.425284 -11.005336 0.000000 0.040104 7.802304 4.771438 1.902925 -18.718692 2.894404 0.000002 6.791363 5.863050 0.320320 -11.607976 13.574682 0.000000 0.000008 62.394058 9.767931 40.007611 23.923887 0.000003 -0.000002 39.776187 -36.958765 62.923275 19.846720 0.012750 -0.000003 -8.486632 21.015739 31.546578 -2.894404 0.000001 6.791358 -7.679586 0.993765 -7.527664 -13.574682 -0.000003 0.000006 -53.970277 -4.509912 -34.875048 -23.923899 0.000006 0.000002 -30.499178 -19.187475 -56.490241 -19.846718 0.012770 0.000002 -22.860484 -1.654015 52.900611 9.469264 0.004642 0.045480 1.632263 -15.436866 -12.689038 0.000098 0.002660 -40.478535 -3.135931 2.963038 -2.264828 0.000057 0.049104 -35.223980 3.994106 2.177823 -1.125375 0.000001 12.539529 -6.151393 0.003726 -0.000476 0.006614 -9.469262 0.004640 0.045486 0.872562 -14.875227 -23.034975 -0.000853 0.002519 -40.478489 -1.118933 4.599211 18.517947 -0.000939 0.048941 -35.224022 0.965308 0.777318 20.609894 -0.000001 12.539535 -6.151392 0.010679 -0.027649 -0.001286 
6.406535 3.364053 83.001579 -11.016712 -2.445556 -101.618462 -0.000000 -0.009282 11.569114 -0.340565 -3.317622 1.927747 -0.000000 0.016864 9.269629 -0.137841 -1.465981 0.831567 -0.000000 -0.000001 8.374485 -0.137841 -1.465981 0.831567 -0.000001 -0.000000 8.374496 -0.101381 -1.099676 0.623310 0.000000 0.000000 12.152558 4.577983 -18.358544 -11.061928 -0.000002 0.040107 7.802303 4.794615 2.025895 -18.816345 2.894403 -0.000000 6.791378 5.844046 0.406296 -11.641091 13.574688 0.000001 0.000007 62.102894 9.413968 40.034669 23.923908 0.000012 -0.000006 38.572308 -36.427031 61.899744 19.846716 0.012754 -0.000003 -10.009561 22.571929 35.055717 -2.894404 -0.000001 6.791377 -7.628067 1.037372 -7.563728 -13.574685 -0.000002 -0.000014 -53.929394 -4.439403 -34.946779 -23.923903 0.000011 -0.000008 -31.248587 -19.255480 -57.113670 -19.846718 0.012770 0.000004 -24.748999 0.223440 53.104014 9.469263 0.004643 0.045489 1.632789 -15.452943 -12.690865 0.000100 0.002660 -40.478535 -3.131519 2.966098 -2.297129 0.000061 0.049107 -35.223965 3.990450 2.178331 -1.159278 -0.000001 12.539528 -6.151385 0.006624 0.000523 0.014584 -9.469262 0.004641 0.045487 0.868353 -14.872202 -23.013177 -0.000850 0.002521 -40.478485 -1.116212 4.597927 18.482603 -0.000938 0.048939 -35.224018 0.963806 0.784428 20.583776 -0.000001 12.539536 -6.151390 0.015089 -0.045068 -0.003127 
6.402431 3.373812 83.001587 -11.015292 -2.429746 -101.532750 -0.000000 -0.009281 11.569108 -0.360171 -3.339079 1.978078 0.000000 0.016864 9.269634 -0.144691 -1.474811 0.852008 -0.000000 0.000002 8.374490 -0.144691 -1.474813 0.852009 0.000000 0.000001 8.374502 -0.106456 -1.106314 0.638623 0.000000 0.000002 12.152547 4.616136 -18.316773 -11.115635 -0.000000 0.040099 7.802318 4.842506 2.104267 -18.903978 2.894404 0.000001 6.791371 5.825712 0.504328 -11.652304 13.574684 -0.000000 -0.000004 61.813342 9.023783 39.953663 23.923904 0.000006 -0.000007 37.411139 -35.771367 60.929037 19.846716 0.012747 0.000009 -11.138661 23.696694 37.875223 -2.894403 -0.000001 6.791366 -7.594450 1.083974 -7.592112 -13.574686 -0.000002 -0.000018 -53.936139 -4.410331 -34.983249 -23.923923 -0.000006 -0.000006 -32.193082 -19.171282 -57.684062 -19.846722 0.012779 0.000007 -26.495431 2.340509 52.821039 9.469263 0.004644 0.045490 1.634919 -15.457242 -12.714483 0.000102 0.002661 -40.478531 -3.128962 2.975332 -2.339864 0.000062 0.049104 -35.223969 3.991688 2.170928 -1.184192 -0.000001 12.539527 -6.151385 0.007488 0.004363 0.018320 -9.469263 0.004642 0.045490 0.868070 -14.855178 -23.029069 -0.000849 0.002522 -40.478497 -1.116133 4.597374 18.447127 -0.000943 0.048939 -35.224033 0.960082 0.780900 20.631285 -0.000001 12.539532 -6.151405 0.018082 -0.049533 -0.008066 
6.401301 3.383044 83.001602 -11.016677 -2.415341 -101.445146 0.000000 -0.009282 11.569097 -0.370635 -3.351857 2.017196 -0.000000 0.016866 9.269640 -0.149078 -1.478719 0.865171 -0.000000 0.000001 8.374494 -0.149078 -1.478718 0.865172 -0.000000 0.000001 8.374495 -0.109710 -1.109253 0.648482 0.000000 0.000001 12.152539 4.651594 -18.305110 -11.154238 0.000001 0.040103 7.802291 4.893678 2.127633 -18.963590 2.894404 -0.000001 6.791368 5.798357 0.552061 -11.640650 13.574684 0.000001 0.000004 61.616830 8.663169 39.836112 23.923923 0.000009 -0.000002 36.292883 -35.137297 59.973104 19.846716 0.012750 0.000004 -12.034637 24.518888 39.941744 -2.894404 -0.000001 6.791363 -7.582327 1.091398 -7.592927 -13.574687 -0.000002 -0.000003 -54.036482 -4.358057 -35.028427 -23.923904 -0.000013 -0.000005 -33.368882 -18.970442 -58.189681 -19.846718 0.012757 -0.000001 -28.111923 4.724408 52.379802 9.469263 0.004644 0.045480 1.637245 -15.469890 -12.737791 0.000104 0.002660 -40.478531 -3.123310 2.991199 -2.383656 0.000062 0.049106 -35.223980 3.990983 2.160624 -1.193244 -0.000001 12.539528 -6.151393 0.009320 0.008791 0.021718 -9.469263 0.004642 0.045477 0.866622 -14.846079 -23.050698 -0.000848 0.002521 -40.478489 -1.112428 4.600273 18.419043 -0.000944 0.048939 -35.224014 0.955170 0.778447 20.683421 -0.000001 12.539530 -6.151392 0.022023 -0.053655 -0.008679 
